<?xml version="1.0" encoding="utf-8"?>
<!-- Generator: Adobe Illustrator 25.4.1, SVG Export Plug-In . SVG Version: 6.00 Build 0)  -->
<svg version="1.1" id="Calque_1" xmlns="http://www.w3.org/2000/svg" xmlns:xlink="http://www.w3.org/1999/xlink" x="0px" y="0px"
	 viewBox="0 0 819.4 159.6" style="enable-background:new 0 0 819.4 159.6;" xml:space="preserve">
<style type="text/css">
	.st0{fill:#FFFFFF;}
</style>
<g id="Calque_26">
	<g id="AXONAUT_trace_00000006693613005596343630000003694646043523862433_">
		<path class="st0" d="M292.4,103.6h-39.7l-7.8,18.4h-15.2l35.8-79.5H280l35.9,79.5h-15.4L292.4,103.6z M287.6,92l-15-34.7L257.7,92
			H287.6z"/>
		<path class="st0" d="M379.1,122l-21.6-30.2L336.2,122h-16.8l29.5-40.5l-27.9-38.9h16.7L358,70.8l20.1-28.3h16l-27.8,38.4
			l29.9,41.1L379.1,122z"/>
		<path class="st0" d="M416.7,117.8c-6.4-3.4-11.7-8.4-15.3-14.6c-7.4-13-7.4-28.9,0-41.9c3.7-6.2,9-11.3,15.3-14.7
			c13.8-7,30.1-7,43.9,0c6.3,3.4,11.6,8.4,15.3,14.6c7.4,13,7.4,29,0,42c-3.7,6.2-9,11.2-15.3,14.6
			C446.8,124.9,430.5,124.9,416.7,117.8L416.7,117.8z M453,106.6c4.2-2.3,7.7-5.8,10-10c4.9-9,4.9-19.8,0-28.8
			c-2.3-4.2-5.8-7.7-10-10c-8.9-4.8-19.7-4.8-28.6,0c-4.2,2.3-7.7,5.8-10,10c-4.9,9-4.9,19.8,0,28.8c2.3,4.2,5.8,7.7,10,10
			C433.3,111.4,444,111.4,453,106.6z"/>
		<path class="st0" d="M565,42.5V122h-12.2L509,68.1V122h-14.6V42.5h12.1l43.9,53.8V42.5H565z"/>
		<path class="st0" d="M635.7,103.6h-39.7l-7.8,18.4h-15.2l35.8-79.5h14.5l35.9,79.5h-15.4L635.7,103.6z M630.8,92l-15-34.7
			L600.9,92H630.8z"/>
		<path class="st0" d="M671.1,113.9c-6.1-6.2-9.2-15-9.2-26.5V42.5h14.8v44.3c0,15.6,6.7,23.4,20.2,23.4c13.4,0,20.1-7.8,20.1-23.4
			V42.5h14.5v44.9c0,11.5-3,20.3-9.1,26.5s-14.6,9.3-25.6,9.3C685.8,123.1,677.2,120,671.1,113.9z"/>
		<path class="st0" d="M765.9,55h-26.3V42.5H807V55h-26.3v67h-14.8V55z"/>
		<path class="st0" d="M169.6,96.4L169.6,96.4C138.7,92,116.2,65.1,117.2,34l0,0c0.5-16.9-12.7-31-29.6-31.5
			C70.7,1.9,56.6,15.1,56.1,32c-0.5,15.6,10.8,29,26.2,31.2l0,0c15.7,2.2,29.8,10.5,39.5,22.9c8.4,11.6,5.6,30.8-14.8,33.2
			c-16,0.8-31.7-4.8-43.6-15.5l0,0c-12.6-11.3-31.9-10.2-43.2,2.4s-10.2,31.9,2.4,43.2c11.6,10.4,29.2,10.4,40.8,0l0,0
			c23.2-20.8,58.3-20.8,81.5,0l0,0c12.6,11.3,31.9,10.2,43.2-2.4c11.3-12.6,10.2-31.9-2.4-43.2C181.2,99.9,175.6,97.3,169.6,96.4
			L169.6,96.4z M96.4,44.7c-6.5,5.4-16.1,4.6-21.5-1.9c-5.4-6.5-4.6-16.1,1.9-21.5c6.5-5.4,16.1-4.6,21.5,1.9
			C103.8,29.5,103,39.2,96.4,44.7C96.5,44.6,96.5,44.7,96.4,44.7L96.4,44.7z M42.9,141.9c-8.4,0-15.3-6.8-15.3-15.3
			c0-8.4,6.8-15.3,15.3-15.3s15.3,6.8,15.3,15.3S51.4,141.9,42.9,141.9L42.9,141.9z M165.2,141.9c-8.4,0-15.3-6.8-15.3-15.3
			c0-8.4,6.8-15.3,15.3-15.3c8.4,0,15.3,6.8,15.3,15.3S173.7,141.9,165.2,141.9C165.2,141.9,165.2,141.9,165.2,141.9z"/>
	</g>
</g>
</svg>
